# xmcd CD database file
#
# Track frame offsets:
#	150
#	21309
#	41484
#	62139
#	81488
#	103751
#	125837
#	145798
#	164494
#	186800
#
# Disc length: 2787 seconds
#
# Revision: 0
# Processed by: cddbd v1.4PL0 Copyright (c) Steve Scherf et al.
# Submitted via: CDex 1.50beta9
#
DISCID=910ae10a
DTITLE=Edgar Joel and Anthony Colon - Oro Salsero - 20 Exitos [CD 1 of 2)
DYEAR=1996
DGENRE=Salsa
TTITLE0=Hasta el sol de hoy
TTITLE1=Citas clandestinas
TTITLE2=Me atrapa la noche
TTITLE3=Aun me quema tu adios
TTITLE4=Un espejismo
TTITLE5=Hechizo de luna
TTITLE6=No te voy a olvidar
TTITLE7=A fuego lento
TTITLE8=Loca por mi
TTITLE9=Si tuviera tus ojos
EXTD=YEAR: 1996
EXTT0=
EXTT1=
EXTT2=
EXTT3=
EXTT4=
EXTT5=
EXTT6=
EXTT7=
EXTT8=
EXTT9=
PLAYORDER=
